<svg width="220" height="220" viewBox="0 0 220 220" fill="none" xmlns="http://www.w3.org/2000/svg">
<path d="M187.956 175.797H31.0439L109.5 39.9053L187.956 175.797Z" stroke="url(#paint0_linear_52_8)" stroke-width="18.9065"/>
<path d="M129.969 107.195V112.841C129.969 140.016 114.802 152.361 96.0947 152.361H90.7256C91.3241 143.858 93.9719 138.712 100.882 132.598C104.281 129.592 103.993 127.856 102.319 128.852C90.7905 135.711 85.063 144.982 84.8089 159.785L84.8005 160.829H79.1548C79.1548 156.982 79.4822 153.49 80.1315 150.294C79.4841 146.642 79.1595 141.685 79.1576 135.424C79.1576 119.833 91.7955 107.195 107.386 107.195C113.032 107.195 118.677 110.018 129.969 107.195Z" fill="white"/>
<defs>
<linearGradient id="paint0_linear_52_8" x1="47.0036" y1="96.8885" x2="212.96" y2="190.371" gradientUnits="userSpaceOnUse">
<stop stop-color="#9AF1FF"/>
<stop offset="1" stop-color="#2649C7"/>
</linearGradient>
</defs>
</svg>
